<svg width="306" height="319" viewBox="0 0 306 319" fill="none" xmlns="http://www.w3.org/2000/svg">
<path d="M306 692.265C374.342 684.204 432.132 640.842 483.168 594.679C528.342 553.819 548.059 495.962 580.218 444.231C618.015 383.432 703.87 333.944 688.759 263.967C673.325 192.495 568.906 187.111 514.214 138.581C469.318 98.743 454.701 25.404 397.933 5.905C340.887 -13.689 282.322 24.492 223.727 38.803C161.861 53.914 87.6048 45.539 44.3378 92.269C0.959839 139.119 10.2269 212.057 4.43885 275.642C-1.05115 335.956 -3.87721 394.923 11.4568 453.513C29.2228 521.399 45.2568 595.714 99.7699 639.901C156.006 685.485 234.107 700.745 306 692.265Z" fill="#242C30"/>
</svg>
