<svg width="383" height="307" viewBox="0 0 383 307" fill="none" xmlns="http://www.w3.org/2000/svg">
<path d="M9.15527e-05 304.74C56.6421 298.821 102.959 264.578 154.591 240.548C215.483 212.208 290.278 204.727 330.488 150.929C373.16 93.837 394.799 14.502 374.642 -53.865C354.886 -120.873 280.693 -151.755 227.794 -197.385C183.06 -235.972 146.082 -288.38 88.3331 -300.836C31.8491 -313.019 -24.9809 -287.758 -77.2779 -263.185C-123.639 -241.401 -160.002 -206.416 -194.054 -168.149C-228.531 -129.405 -259.067 -88.675 -276.145 -39.704C-296.158 17.684 -318.84 79.298 -300.562 137.262C-281.605 197.379 -231.913 244.5 -176.849 275.182C-123.56 304.875 -60.6729 311.08 9.15527e-05 304.74Z" fill="#181E20"/>
</svg>
